<svg data-grammar="timeline" data-visual-directives="layout.timeline,readability.mixed_text" xmlns="http://www.w3.org/2000/svg" width="680" height="320" viewBox="0 0 680 320">
<rect width="100%" height="100%" fill="#F8FAFC"/>
<g class="timeline-directives layout.timeline readability.mixed_text"/>
<text x="340.0" y="28.0" fill="#0F172A" font-size="16" text-anchor="middle" dominant-baseline="middle">AutoBook产品路线图</text>
<line x1="56.0" y1="176.0" x2="624.0" y2="176.0" stroke="#2563EB" stroke-width="2"/>
<circle cx="56.0" cy="176.0" r="8.0" fill="#2563EB"/>
<line x1="56.0" y1="176.0" x2="56.0" y2="140.0" stroke="#CBD5E1" stroke-width="1"/>
<g class="timeline-event alternating-timeline-labels" data-time="Q1">
<rect x="0.0" y="80.0" width="112.0" height="48.0" rx="8" fill="#FFFFFF" stroke="#CBD5E1" stroke-width="1.5"/>
<text x="56.0" y="94.0" fill="#2563EB" font-size="11" text-anchor="middle" dominant-baseline="middle">Q1</text>
<text x="56.0" y="112.0" fill="#0F172A" font-size="11" text-anchor="middle" dominant-baseline="middle">核心写作功能</text>
</g>
<circle cx="245.3" cy="176.0" r="8.0" fill="#2563EB"/>
<line x1="245.3" y1="176.0" x2="245.3" y2="212.0" stroke="#CBD5E1" stroke-width="1"/>
<g class="timeline-event alternating-timeline-labels lower-label" data-time="Q2">
<rect x="189.3" y="248.0" width="112.0" height="48.0" rx="8" fill="#FFFFFF" stroke="#CBD5E1" stroke-width="1.5"/>
<text x="245.3" y="262.0" fill="#2563EB" font-size="11" text-anchor="middle" dominant-baseline="middle">Q2</text>
<text x="245.3" y="280.0" fill="#0F172A" font-size="11" text-anchor="middle" dominant-baseline="middle">上线文献搜索</text>
</g>
<circle cx="434.7" cy="176.0" r="8.0" fill="#2563EB"/>
<line x1="434.7" y1="176.0" x2="434.7" y2="140.0" stroke="#CBD5E1" stroke-width="1"/>
<g class="timeline-event alternating-timeline-labels" data-time="Q3">
<rect x="378.7" y="80.0" width="112.0" height="48.0" rx="8" fill="#FFFFFF" stroke="#CBD5E1" stroke-width="1.5"/>
<text x="434.7" y="94.0" fill="#2563EB" font-size="11" text-anchor="middle" dominant-baseline="middle">Q3</text>
<text x="434.7" y="112.0" fill="#0F172A" font-size="11" text-anchor="middle" dominant-baseline="middle">添加多模型支持</text>
</g>
<circle cx="624.0" cy="176.0" r="8.0" fill="#2563EB"/>
<line x1="624.0" y1="176.0" x2="624.0" y2="212.0" stroke="#CBD5E1" stroke-width="1"/>
<g class="timeline-event alternating-timeline-labels lower-label" data-time="Q4">
<rect x="568.0" y="248.0" width="112.0" height="48.0" rx="8" fill="#FFFFFF" stroke="#CBD5E1" stroke-width="1.5"/>
<text x="624.0" y="262.0" fill="#2563EB" font-size="11" text-anchor="middle" dominant-baseline="middle">Q4</text>
<text x="624.0" y="280.0" fill="#0F172A" font-size="11" text-anchor="middle" dominant-baseline="middle">企业版</text>
</g>
</svg>