<svg xmlns="http://www.w3.org/2000/svg" width="1120" height="594" viewBox="0 0 1120 594" data-grammar="architecture" data-mandatory-semantics="zones_layers_groups,component_cards,data_store_queue_shapes,orthogonal_cross_layer_edges,layer_titles,directive:readability.mixed_text" data-visual-directives="readability.mixed_text">
<rect width="100%" height="100%" fill="#F8FAFC"/>
<defs>
<filter id="shadow" x="-20%" y="-20%" width="140%" height="140%"><feDropShadow dx="0" dy="1.5" stdDeviation="2" flood-color="#0F172A" flood-opacity="0.12"/></filter>
<marker id="arrow" viewBox="0 0 10 10" refX="9" refY="5" markerWidth="8" markerHeight="8" orient="auto-start-reverse"><path d="M 0 0 L 10 5 L 0 10 z" fill="#64748B"/></marker>
<marker id="arrow-primary" viewBox="0 0 10 10" refX="9" refY="5" markerWidth="8" markerHeight="8" orient="auto-start-reverse"><path d="M 0 0 L 10 5 L 0 10 z" fill="#2563EB"/></marker>
<marker id="arrow-forward" viewBox="0 0 10 10" refX="9" refY="5" markerWidth="8" markerHeight="8" orient="auto-start-reverse"><path d="M 0 0 L 10 5 L 0 10 z" fill="#2563EB"/></marker>
<marker id="arrow-reverse" viewBox="0 0 10 10" refX="9" refY="5" markerWidth="8" markerHeight="8" orient="auto-start-reverse"><path d="M 0 0 L 10 5 L 0 10 z" fill="#B45309"/></marker>
</defs>
<g class="mandatory-semantics" data-items="zones_layers_groups,component_cards,data_store_queue_shapes,orthogonal_cross_layer_edges,layer_titles,directive:readability.mixed_text"/>
<g class="visual-directives" data-items="readability.mixed_text"/>
<text x="560.0" y="28.0" fill="#0F172A" font-size="17" text-anchor="middle" dominant-baseline="middle">数据从用户端经过CDN</text>
<g class="architecture-zone layer-group" data-label="入口层">
<rect x="56.0" y="72.0" width="1008.0" height="128.0" rx="14" fill="#DBEAFE" stroke="#CBD5E1" stroke-width="1.5"/>
<text class="layer-title" x="78" y="100.0" fill="#0F172A" font-size="13" font-weight="bold">入口层</text>
</g>
<g class="component-card architecture-component" data-label="数据从用户端经过CDN">
<rect x="122.0" y="133.0" width="170.0" height="64.0" rx="8" fill="#FFFFFF" stroke="#CBD5E1" stroke-width="1.5" filter="url(#shadow)"/>
<text x="207.0" y="165.0" fill="#0F172A" font-size="12" text-anchor="middle" dominant-baseline="middle">数据从用户端经过CDN</text>
</g>
<g class="component-card architecture-component" data-label="缓存层">
<rect x="560.0" y="133.0" width="170.0" height="64.0" rx="8" fill="#FFFFFF" stroke="#CBD5E1" stroke-width="1.5" filter="url(#shadow)"/>
<text x="645.0" y="165.0" fill="#0F172A" font-size="12" text-anchor="middle" dominant-baseline="middle">缓存层</text>
</g>
<g class="architecture-zone layer-group" data-label="服务层">
<rect x="56.0" y="222.0" width="1008.0" height="128.0" rx="14" fill="#CCFBF1" stroke="#CBD5E1" stroke-width="1.5"/>
<text class="layer-title" x="78" y="250.0" fill="#0F172A" font-size="13" font-weight="bold">服务层</text>
</g>
<g class="component-card architecture-component" data-label="负载均衡">
<rect x="122.0" y="283.0" width="170.0" height="64.0" rx="8" fill="#FFFFFF" stroke="#CBD5E1" stroke-width="1.5" filter="url(#shadow)"/>
<text x="207.0" y="315.0" fill="#0F172A" font-size="12" text-anchor="middle" dominant-baseline="middle">负载均衡</text>
</g>
<g class="data-store-shape architecture-component" data-label="数据库的路径">
<ellipse cx="645.0" cy="283.0" rx="85.0" ry="9.6" fill="#EDE9FE" stroke="#CBD5E1" stroke-width="1.5"/><rect x="560.0" y="283.0" width="170.0" height="64.0" fill="#EDE9FE" stroke="none"/><line x1="560.0" y1="283.0" x2="730.0" y2="283.0" stroke="#CBD5E1" stroke-width="1.5"/><ellipse cx="645.0" cy="347.0" rx="85.0" ry="9.6" fill="#EDE9FE" stroke="#CBD5E1" stroke-width="1.5"/><line x1="560.0" y1="283.0" x2="560.0" y2="347.0" stroke="#CBD5E1" stroke-width="1.5"/><line x1="730.0" y1="283.0" x2="730.0" y2="347.0" stroke="#CBD5E1" stroke-width="1.5"/>
<text x="645.0" y="321.0" fill="#0F172A" font-size="12" text-anchor="middle" dominant-baseline="middle">数据库的路径</text>
</g>
<g class="architecture-zone layer-group" data-label="数据与基础设施层">
<rect x="56.0" y="372.0" width="1008.0" height="128.0" rx="14" fill="#F8FAFC" stroke="#CBD5E1" stroke-width="1.5"/>
<text class="layer-title" x="78" y="400.0" fill="#0F172A" font-size="13" font-weight="bold">数据与基础设施层</text>
</g>
<g class="component-card architecture-component" data-label="应用服务器">
<rect x="122.0" y="433.0" width="170.0" height="64.0" rx="8" fill="#FFFFFF" stroke="#CBD5E1" stroke-width="1.5" filter="url(#shadow)"/>
<text x="207.0" y="465.0" fill="#0F172A" font-size="12" text-anchor="middle" dominant-baseline="middle">应用服务器</text>
</g>
<g class="component-card architecture-component" data-label="展示每个节点处理的内容">
<rect x="560.0" y="433.0" width="170.0" height="64.0" rx="8" fill="#FFFFFF" stroke="#CBD5E1" stroke-width="1.5" filter="url(#shadow)"/>
<text x="645.0" y="465.0" fill="#0F172A" font-size="12" text-anchor="middle" dominant-baseline="middle">展示每个节点处理的内容</text>
</g>
<g class="orthogonal-cross-layer-edge architecture-edge">
<path class="orthogonal-cross-layer-edge architecture-edge-path" d="M 207.0 199.0 L 207.0 240.0 L 207.0 240.0 L 207.0 281.0" fill="none" stroke="#64748B" stroke-width="1.5" marker-end="url(#arrow)"/>
</g>
<g class="orthogonal-cross-layer-edge architecture-edge">
<path class="orthogonal-cross-layer-edge architecture-edge-path" d="M 207.0 349.0 L 207.0 390.0 L 207.0 390.0 L 207.0 431.0" fill="none" stroke="#64748B" stroke-width="1.5" marker-end="url(#arrow)"/>
</g>
<g class="orthogonal-cross-layer-edge architecture-edge">
<path class="orthogonal-cross-layer-edge architecture-edge-path" d="M 207.0 499.0 L 207.0 315.0 L 645.0 315.0 L 645.0 131.0" fill="none" stroke="#64748B" stroke-width="1.5" marker-end="url(#arrow)"/>
</g>
<g class="orthogonal-cross-layer-edge architecture-edge">
<path class="orthogonal-cross-layer-edge architecture-edge-path" d="M 645.0 199.0 L 645.0 240.0 L 645.0 240.0 L 645.0 281.0" fill="none" stroke="#64748B" stroke-width="1.5" marker-end="url(#arrow)"/>
</g>
<g class="orthogonal-cross-layer-edge architecture-edge">
<path class="orthogonal-cross-layer-edge architecture-edge-path" d="M 645.0 349.0 L 645.0 390.0 L 645.0 390.0 L 645.0 431.0" fill="none" stroke="#64748B" stroke-width="1.5" marker-end="url(#arrow)"/>
</g>
</svg>